<svg xmlns="http://www.w3.org/2000/svg" viewBox="0 0 580.16 214.43"><defs><style>.cls-1{fill:#e2e2e2;}.cls-2{fill:#cecece;}</style></defs><g id="Layer_2" data-name="Layer 2"><g id="Layer_1-2" data-name="Layer 1"><path class="cls-1" d="M298.69,57.35H263.16A28.94,28.94,0,0,1,233.68,29,29,29,0,0,1,263.14,0h317V16.79h-317a12.55,12.55,0,0,0-12.9,12.72,12.54,12.54,0,0,0,12.9,11.9h35.52c16.1.31,29.11,12.68,30.3,27.46,1.32,16.45-12.29,31.94-30.3,32.42l-65.92-.82V83.16l65.92.82a13.34,13.34,0,1,0,0-26.63Z"/><path class="cls-1" d="M395.76,68.25v33.2H380V87.15h-28.5v14.3h-15.9V68.25c0-17.5,13.5-31.61,30.1-31.61S395.76,50.75,395.76,68.25Zm-44.3,3.1H380v-3.1c0-8.7-6.4-15.8-14.3-15.8s-14.2,7.1-14.2,15.8Z"/><path class="cls-1" d="M416.66,82.45a3.12,3.12,0,0,0,3.1,3.1h30.1v15.9h-30.1a19,19,0,0,1-19-19V38.14h15.9Z"/><path class="cls-1" d="M515.36,70.15c0,18-14.2,33.4-32.5,33.4s-32.6-15.4-32.6-33.4,14.3-33.41,32.6-33.41S515.36,52.05,515.36,70.15Zm-15.7,0c0-9.4-7.2-17.7-16.8-17.7S466,60.75,466,70.15s7.2,17.6,16.9,17.6S499.66,79.45,499.66,70.15Z"/><path class="cls-1" d="M580.16,68.05v33.4h-15.7V68.05c0-8-5.8-15.7-14.2-15.7s-14.21,7.7-14.21,15.7v33.4h-15.7V68.05c0-16.7,12.8-31.51,29.91-31.51S580.16,51.35,580.16,68.05Z"/><path class="cls-1" d="M293.69,190.05h12.56V170.78H293.69c-5,0-6.85-2.93-8.46-7.32-1.74-4.76-3.49-9.52-5.1-14.28L306.25,113H281.62l-24.13,31.23,9.2,25.86C270.55,180.78,281.74,190.05,293.69,190.05Z"/><rect class="cls-1" x="232.74" y="112.95" width="19.78" height="77.1"/><path class="cls-1" d="M331,172.48h35.45v17.45h19.66v-40.5c0-21.35-16.8-38.55-37.44-38.55s-37.44,17.2-37.44,38.55v40.5H331Zm0-23c0-10.62,8-19.28,17.67-19.28s17.78,8.66,17.78,19.28v3.78H331Z"/><polygon class="cls-1" points="405.39 189.93 424.92 189.93 424.92 131.86 442.58 131.86 442.58 112.71 387.73 112.71 387.73 131.86 405.39 131.86 405.39 189.93"/><polygon class="cls-1" points="466.46 189.93 485.99 189.93 485.99 131.86 503.66 131.86 503.66 112.71 448.8 112.71 448.8 131.86 466.46 131.86 466.46 189.93"/><path class="cls-1" d="M542.72,110.88c-20.65,0-37.44,17.2-37.44,38.55v40.5h19.78V172.48H560.5V204H232.74v10.44H580.16v-65C580.16,128.08,563.37,110.88,542.72,110.88Zm17.78,42.33H525.06v-3.78c0-10.62,8-19.28,17.66-19.28s17.78,8.66,17.78,19.28Z"/><path class="cls-2" d="M107.17,0C166.27,0,214,48,213.94,107.37c0,59.21-48.05,107.2-107.14,107.06A107.22,107.22,0,0,1,107.17,0ZM196,107.19A89.17,89.17,0,0,0,106.5,18C57.8,18.1,17.85,58.41,18,107.33c.13,49.26,40.23,89.23,89.35,89.07C156.18,196.24,196.09,156.06,196,107.19Z"/><path class="cls-1" d="M134.16,122.51c-5.4,0-10.8.07-16.2,0-1.67,0-2.16.51-1.81,2.07.15.63.15,1.29.26,1.94.72,4.58-1,6.89-5.6,7.25a44.11,44.11,0,0,1-5.86.08c-5.19-.3-7.47-2.63-7.16-7.72.18-2.84-.48-3.8-3.5-3.67-4.89.2-7.24-2.35-7.21-7.07,0-4.36,2.55-6.64,7.42-6.69,3.77,0,3.74,0,3.87-3.82q.76-23.73,1.56-47.45c.14-4.18,2.15-6,6.67-6,4.91,0,7.11,1.73,7.25,6.06.53,16.1,1.07,32.19,1.45,48.3.06,2.48.8,3,3.19,3,10.42-.14,20.85-.07,31.28-.06,4.1,0,5.6,1.36,5.84,5.38a22.35,22.35,0,0,1-.13,4.17c-.4,3-1.78,4.24-4.84,4.27C145.15,122.55,139.66,122.51,134.16,122.51Z"/><path class="cls-1" d="M114,34.6a7.36,7.36,0,0,1-7,7.54c-4.06.06-7.32-3.4-7.38-7.85a6.86,6.86,0,0,1,7.25-7.14A7.35,7.35,0,0,1,114,34.6Z"/><path class="cls-1" d="M34.16,115.55a7.5,7.5,0,0,1-7.08-7.77c.08-4.16,3.51-7.63,7.4-7.49a7.42,7.42,0,0,1,6.93,7.62C41.36,112.1,38.05,115.6,34.16,115.55Z"/><path class="cls-1" d="M177.1,70.62a7.24,7.24,0,0,1-7.31,7.2,7.24,7.24,0,0,1,.09-14.47A7.18,7.18,0,0,1,177.1,70.62Z"/><path class="cls-1" d="M70.43,36.85a7.19,7.19,0,1,1,0,14.38,7.19,7.19,0,0,1,0-14.38Z"/><path class="cls-1" d="M44,136.54a7.19,7.19,0,0,1,7.3,7.2,7.22,7.22,0,0,1-14.43.13A7.15,7.15,0,0,1,44,136.54Z"/><path class="cls-1" d="M143.35,177.56a7.2,7.2,0,0,1-.09-14.4,7.2,7.2,0,0,1,7.32,7.17A7.12,7.12,0,0,1,143.35,177.56Z"/><path class="cls-1" d="M143.34,51.1A7.11,7.11,0,0,1,136,44a7.29,7.29,0,0,1,7.23-7.3,7.17,7.17,0,0,1,7.12,7.08A7.05,7.05,0,0,1,143.34,51.1Z"/><path class="cls-1" d="M43.81,78a7.06,7.06,0,0,1-7-7.38,7.22,7.22,0,0,1,7.16-7,7.36,7.36,0,0,1,7.24,7.32A7.17,7.17,0,0,1,43.81,78Z"/><path class="cls-1" d="M177.15,143.67a7.2,7.2,0,0,1-7.24,7.25,7.37,7.37,0,0,1-7.17-7.11,7.21,7.21,0,0,1,7.17-7.32A7.06,7.06,0,0,1,177.15,143.67Z"/><path class="cls-1" d="M107.15,187.4a7.24,7.24,0,0,1-.11-14.48,7.24,7.24,0,0,1,.11,14.48Z"/><path class="cls-1" d="M70.6,163.25a7.07,7.07,0,0,1,7.25,7.18,7.18,7.18,0,0,1-14.35.11A7,7,0,0,1,70.6,163.25Z"/><path class="cls-1" d="M180.64,114.39a7,7,0,0,1-6.77-7.34,6.91,6.91,0,1,1,13.78.25A6.94,6.94,0,0,1,180.64,114.39Z"/></g></g></svg>