<svg xmlns="http://www.w3.org/2000/svg" viewBox="0 0 213.94 214.43"><defs><style>.cls-1{fill:#000000;}.cls-2{fill:#484848;}</style></defs><g id="Layer_2" data-name="Layer 2"><g id="Layer_1-2" data-name="Layer 1"><path class="cls-1" d="M107.17,0C166.27,0,214,48,213.94,107.37c0,59.21-48.05,107.2-107.14,107.06A107.22,107.22,0,0,1,107.17,0ZM196,107.19A89.17,89.17,0,0,0,106.5,18C57.8,18.1,17.85,58.41,18,107.33c.13,49.26,40.23,89.23,89.35,89.07C156.18,196.24,196.09,156.06,196,107.19Z"/><path class="cls-2" d="M134.16,122.51c-5.4,0-10.8.07-16.2,0-1.67,0-2.16.51-1.81,2.07.15.63.15,1.29.26,1.94.72,4.58-1,6.89-5.6,7.25a44.11,44.11,0,0,1-5.86.08c-5.19-.3-7.47-2.63-7.16-7.72.18-2.84-.48-3.8-3.5-3.67-4.89.2-7.24-2.35-7.21-7.07,0-4.36,2.55-6.64,7.42-6.69,3.77,0,3.74,0,3.87-3.82q.76-23.73,1.56-47.45c.14-4.18,2.15-6,6.67-6,4.91,0,7.11,1.73,7.25,6.06.53,16.1,1.07,32.19,1.45,48.3.06,2.48.8,3,3.19,3,10.42-.14,20.85-.07,31.28-.06,4.1,0,5.6,1.36,5.84,5.38a22.35,22.35,0,0,1-.13,4.17c-.4,3-1.78,4.24-4.84,4.27C145.15,122.55,139.66,122.51,134.16,122.51Z"/><path class="cls-2" d="M114,34.6a7.36,7.36,0,0,1-7,7.54c-4.06.06-7.32-3.4-7.38-7.85a6.86,6.86,0,0,1,7.25-7.14A7.35,7.35,0,0,1,114,34.6Z"/><path class="cls-2" d="M34.16,115.55a7.5,7.5,0,0,1-7.08-7.77c.08-4.16,3.51-7.63,7.4-7.49a7.42,7.42,0,0,1,6.93,7.62C41.36,112.1,38.05,115.6,34.16,115.55Z"/><path class="cls-2" d="M177.1,70.62a7.24,7.24,0,0,1-7.31,7.2,7.24,7.24,0,0,1,.09-14.47A7.18,7.18,0,0,1,177.1,70.62Z"/><path class="cls-2" d="M70.43,36.85a7.19,7.19,0,1,1,0,14.38,7.19,7.19,0,0,1,0-14.38Z"/><path class="cls-2" d="M44,136.54a7.19,7.19,0,0,1,7.3,7.2,7.22,7.22,0,0,1-14.43.13A7.15,7.15,0,0,1,44,136.54Z"/><path class="cls-2" d="M143.35,177.56a7.2,7.2,0,0,1-.09-14.4,7.2,7.2,0,0,1,7.32,7.17A7.12,7.12,0,0,1,143.35,177.56Z"/><path class="cls-2" d="M143.34,51.1A7.11,7.11,0,0,1,136,44a7.29,7.29,0,0,1,7.23-7.3,7.17,7.17,0,0,1,7.12,7.08A7.05,7.05,0,0,1,143.34,51.1Z"/><path class="cls-2" d="M43.81,78a7.06,7.06,0,0,1-7-7.38,7.22,7.22,0,0,1,7.16-7,7.36,7.36,0,0,1,7.24,7.32A7.17,7.17,0,0,1,43.81,78Z"/><path class="cls-2" d="M177.15,143.67a7.2,7.2,0,0,1-7.24,7.25,7.37,7.37,0,0,1-7.17-7.11,7.21,7.21,0,0,1,7.17-7.32A7.06,7.06,0,0,1,177.15,143.67Z"/><path class="cls-2" d="M107.15,187.4a7.24,7.24,0,0,1-.11-14.48,7.24,7.24,0,0,1,.11,14.48Z"/><path class="cls-2" d="M70.6,163.25a7.07,7.07,0,0,1,7.25,7.18,7.18,7.18,0,0,1-14.35.11A7,7,0,0,1,70.6,163.25Z"/><path class="cls-2" d="M180.64,114.39a7,7,0,0,1-6.77-7.34,6.91,6.91,0,1,1,13.78.25A6.94,6.94,0,0,1,180.64,114.39Z"/></g></g></svg>